# xmcd CD database file
#
# Track frame offsets:
#	150
#	13150
#	27937
#	37625
#	46650
#	57950
#	72850
#	89925
#	100912
#	113450
#	123425
#	135150
#	144900
#	154537
#	167525
#	178250
#
# Disc length: 2549 seconds
#
# Revision: 2
# Processed by: cddbd v1.5.2PL0 Copyright (c) Steve Scherf et al.
# Submitted via: CDex 2.16
#
DISCID=c409f310
DTITLE=Little Willie Littlefield - ...goes Rhythm'n Blues
DYEAR=1992
DGENRE=Blues
TTITLE0=Bad, Bad Whiskey
TTITLE1=Going Down Slow
TTITLE2=Walk Right In
TTITLE3=Waltz Away Boogie
TTITLE4=Trembling
TTITLE5=Adam Come And Get Your Bone
TTITLE6=Prisoner For Tonight
TTITLE7=12th Street And Vone
TTITLE8=When I Lost My Baby
TTITLE9=My Luck Is Bound To Change
TTITLE10=Toe Tapping Boogie
TTITLE11=Bad Luck
TTITLE12=Hold Me Baby
TTITLE13=As Time Goes By
TTITLE14=Blue And Lonesome
TTITLE15=It Took A Long Time, Baby
EXTD=ADD\nCM 10002\nCMA Music Production\n(P( and (C) 1992 YEAR: 1992
EXTT0=
EXTT1=
EXTT2=
EXTT3=
EXTT4=
EXTT5=
EXTT6=
EXTT7=
EXTT8=
EXTT9=
EXTT10=
EXTT11=
EXTT12=
EXTT13=
EXTT14=
EXTT15=
PLAYORDER=
